<svg id="Layer_1" data-name="Layer 1" xmlns="http://www.w3.org/2000/svg" viewBox="0 0 1337.31 599.75"><defs><style>.cls-1{fill:#3f51b5;}.cls-2{font-size:449.65px;font-family:Motor-Oil-1937-M54-Regular, "Motor Oil 1937 M54";letter-spacing:0.02em;}</style></defs><g id="Layer_3" data-name="Layer 3"><path class="cls-1" d="M1036.55,771.5l28.75,14.72c-29.35,8.59-58.94-8.31-64.78-35.4C995,725.4,989.44,700,984,674.57c-.54-2.51-.07-5.23-.07-10.94,23.87-14.74,48.63-30.15,73.52-45.36,61.6-37.65,123.47-74.86,184.73-113,13.82-8.62,25.58-20.52,39-31.5.94,2.17,2.44,4,2.42,5.81-.45,38.3,0,76.66-2.1,114.88-1.19,21.49-6.2,42.86-10.56,64.06-2.36,11.44-10.31,18.79-21.5,23.43-66.4,27.49-132.64,55.38-198.92,83.16C1046.55,766.75,1042.64,768.69,1036.55,771.5Zm179.09-212.79v38.46l41.55-19.94V530.57Zm-25.3,14.51-33.56,22.7v31.63l33.56-16.27ZM1100.09,625c-.39,8.53-.78,16.8-1.24,26.94,10.81-5.39,19.05-9.5,27-13.46V608.1Zm-50.67,49.59,20.52-10.33c.52-8.39,1-16.1,1.57-25.49l-22.09,15.51Z" transform="translate(-165.4 -473.72)"/><path class="cls-1" d="M1220,742.76c1.72,30.93-3,57.78-11.58,83.82-1.71,5.17-8.54,10.7-14.07,12.21-35.86,9.84-72,18.58-108.06,27.78-2.92.74-5.65,2.16-10.64,4.12l17.83,2.47-40.55,123c-13.69-62.64-26.68-122-40.28-184.25l183.68-59.28c.52-1.31,1-2.62,1.55-3.92l-22.35-14.14,1-2.92Zm-21.31,26-28.13,12.59c-1.2,7.07-2.21,12.93-3.48,20.41l24.92-6.1C1194.29,786.46,1196.37,778.09,1198.69,768.74Zm-49,40.14c1.84-7.59,3.58-14.76,5.82-24l-22.34,10.3c-1.23,5.62-2.39,10.95-3.86,17.66Zm-34.79-9.53-16.7,4.62-4.33,15.84,17.35-4.54C1112.51,809.71,1113.5,805.43,1114.91,799.35Z" transform="translate(-165.4 -473.72)"/><path d="M323.26,822.29a63.64,63.64,0,0,0-11.42-6.58,66.6,66.6,0,0,0-12.95-4.17,71.47,71.47,0,0,0-14.05-1.32,59.38,59.38,0,0,0-22.18,3.95A45.91,45.91,0,0,0,246,825.59h.22a50.15,50.15,0,0,0-11,18.22A74.59,74.59,0,0,0,231.49,868a79.54,79.54,0,0,0,3.73,25.25,48.74,48.74,0,0,0,27.88,29.42A70.22,70.22,0,0,0,287,926.36a72.26,72.26,0,0,0,14-1.31,45.07,45.07,0,0,0,12.07-4.18,17.11,17.11,0,0,1,4.94-3.07,21.59,21.59,0,0,0,5.6-3.51q7.68-6.37,13.61-12.19a104.71,104.71,0,0,0,11.86-14.16v80.58l-4.61,2.63A81.53,81.53,0,0,1,330.29,978q-7,2.63-15.37,4.83a149.76,149.76,0,0,1-32.93,4,130.83,130.83,0,0,1-46.55-8.12A97.68,97.68,0,0,1,198.12,954a105.14,105.14,0,0,1-24.6-38q-8.11-20.62-8.12-46.76a131.36,131.36,0,0,1,8.34-47.43,110.56,110.56,0,0,1,25.47-37.76,104.68,104.68,0,0,1,38.86-24.37q21.3-8.12,48.53-8.12a129.37,129.37,0,0,1,16,.88q10.1,1.31,14.93,2.41a129.86,129.86,0,0,1,14.05,4.39q5.94,2.41,13,5.93l4.61,2.63v78.39a75.31,75.31,0,0,0-11.75-13.07Q331.6,828.23,323.26,822.29Z" transform="translate(-165.4 -473.72)"/><path d="M392.8,758.62h64.33v220H392.8Z" transform="translate(-165.4 -473.72)"/><path d="M500.1,758.62h61.69v17.13a87.77,87.77,0,0,1,19.11-13.61,103.55,103.55,0,0,1,23.27-7.91,142.55,142.55,0,0,1,26.57-2.63,122.1,122.1,0,0,1,22.39,2,89.41,89.41,0,0,1,19.76,5.93,75.4,75.4,0,0,1,16.25,10.32,73.92,73.92,0,0,1,12.51,14.27q2.85,5.05,5.27,10.54a94.29,94.29,0,0,1,3.51,11.86,124.2,124.2,0,0,1,2,16.68q.66,10.32.66,23.93V978.62h-65V865.77q0-19.54-2.2-31.62-2.19-11-5.48-15.81a22.93,22.93,0,0,0-9.44-6.8,52.3,52.3,0,0,0-17.79-2.64A58.68,58.68,0,0,0,588.36,814a37.76,37.76,0,0,0-16.25,13.61l-.22.22a24,24,0,0,0-3.29,6.37,48.64,48.64,0,0,0-2.41,8.56q-.66,5.28-1.32,13.84-.45,11-.44,21.07v101H500.1Z" transform="translate(-165.4 -473.72)"/><path d="M926.2,884.43l6.14,3.51,38.86,21.74,7.91,4.39-4.39,7.9a141.06,141.06,0,0,1-20.2,28.33,116.5,116.5,0,0,1-25.25,20.41q-12.07,7.47-29.64,12.08a143.78,143.78,0,0,1-34,4,131.49,131.49,0,0,1-46.77-8.12A93.08,93.08,0,0,1,782,954.47a99.65,99.65,0,0,1-23.71-37.77q-7.69-21.29-7.69-47.42,0-25.47,7.91-46.55A110.6,110.6,0,0,1,782.83,785a105.27,105.27,0,0,1,37.1-25q20.21-8.34,45.67-8.34,52.47,0,82.55,30.74,14.72,14.92,22.62,36.66Q978,840.08,978,866.64v17.79Zm-2.42,0h-106a72,72,0,0,0,3.29,13,47.21,47.21,0,0,0,9.88,16,39.34,39.34,0,0,0,14.49,9.66,51.18,51.18,0,0,0,19.32,3.29,68.46,68.46,0,0,0,18.22-2.19A40.71,40.71,0,0,0,897,918.46a59.21,59.21,0,0,0,12.07-10.54,115.29,115.29,0,0,0,10.76-16.25ZM910,835.25a56.5,56.5,0,0,0-2.42-5.93,35.54,35.54,0,0,0-8.78-11,37.87,37.87,0,0,0-13.39-7,67.12,67.12,0,0,0-18.66-2.42,63.08,63.08,0,0,0-18,2.42,37.08,37.08,0,0,0-13,6.58h-.22a37.93,37.93,0,0,0-9.44,11.42,47.52,47.52,0,0,0-3.08,5.93Z" transform="translate(-165.4 -473.72)"/><text class="cls-2" transform="translate(1060.07 504.9)">y</text><polygon class="cls-1" points="227.4 153.05 297.16 200.05 227.4 248.64 227.4 153.05"/></g></svg>